<svg width="20" height="21" viewBox="0 0 20 21" fill="none" xmlns="http://www.w3.org/2000/svg">
<rect x="0.5" y="1.22949" width="19" height="19" rx="9.5" stroke="white"/>
<path d="M10 9.48949C9.75475 9.48949 9.51501 9.56222 9.31109 9.69847C9.10718 9.83472 8.94824 10.0284 8.85439 10.255C8.76054 10.4815 8.73598 10.7309 8.78383 10.9714C8.83167 11.2119 8.94977 11.4329 9.12319 11.6063C9.2966 11.7797 9.51755 11.8978 9.75809 11.9457C9.99862 11.9935 10.2479 11.969 10.4745 11.8751C10.7011 11.7813 10.8948 11.6223 11.031 11.4184C11.1673 11.2145 11.24 10.9747 11.24 10.7295C11.24 10.5667 11.2079 10.4054 11.1456 10.255C11.0833 10.1045 10.992 9.96782 10.8768 9.85268C10.7617 9.73753 10.625 9.6462 10.4745 9.58388C10.3241 9.52157 10.1628 9.48949 10 9.48949ZM14.965 8.26449C14.9624 7.87837 14.8913 7.49578 14.755 7.13449C14.6546 6.87012 14.4994 6.63004 14.2994 6.43008C14.0995 6.23013 13.8594 6.07485 13.595 5.97449C13.2337 5.83822 12.8511 5.76712 12.465 5.76449C11.82 5.72949 11.63 5.72949 10 5.72949C8.37 5.72949 8.18 5.72949 7.535 5.76449C7.14888 5.76712 6.76629 5.83822 6.405 5.97449C6.14063 6.07485 5.90055 6.23013 5.70059 6.43008C5.50064 6.63004 5.34536 6.87012 5.245 7.13449C5.10873 7.49578 5.03763 7.87837 5.035 8.26449C5 8.90949 5 9.09949 5 10.7295C5 12.3595 5 12.5495 5.035 13.1945C5.04038 13.582 5.11139 13.9657 5.245 14.3295C5.34491 14.5927 5.50006 14.8313 5.7 15.0295C5.8991 15.2306 6.13969 15.3859 6.405 15.4845C6.76629 15.6208 7.14888 15.6919 7.535 15.6945C8.18 15.7295 8.37 15.7295 10 15.7295C11.63 15.7295 11.82 15.7295 12.465 15.6945C12.8511 15.6919 13.2337 15.6208 13.595 15.4845C13.8603 15.3859 14.1009 15.2306 14.3 15.0295C14.4999 14.8313 14.6551 14.5927 14.755 14.3295C14.8911 13.9664 14.9622 13.5822 14.965 13.1945C15 12.5495 15 12.3595 15 10.7295C15 9.09949 15 8.90949 14.965 8.26449ZM13.695 12.2645C13.679 12.573 13.6131 12.877 13.5 13.1645C13.4029 13.4043 13.2586 13.6222 13.0757 13.8052C12.8927 13.9881 12.6748 14.1324 12.435 14.2295C12.1448 14.3363 11.8391 14.3954 11.53 14.4045C11.135 14.4045 11.03 14.4045 10 14.4045C8.97 14.4045 8.865 14.4045 8.47 14.4045C8.16087 14.3954 7.85524 14.3363 7.565 14.2295C7.31705 14.1374 7.09314 13.9904 6.91 13.7995C6.72883 13.6201 6.58892 13.4034 6.5 13.1645C6.39278 12.8746 6.3353 12.5686 6.33 12.2595C6.33 11.8645 6.33 11.7595 6.33 10.7295C6.33 9.69949 6.33 9.59449 6.33 9.19949C6.3353 8.8904 6.39278 8.58443 6.5 8.29449C6.59214 8.04654 6.73914 7.82263 6.93 7.63949C7.11017 7.4593 7.32663 7.31954 7.565 7.22949C7.85524 7.1227 8.16087 7.0636 8.47 7.05449C8.865 7.05449 8.97 7.05449 10 7.05449C11.03 7.05449 11.135 7.05449 11.53 7.05449C11.8391 7.0636 12.1448 7.1227 12.435 7.22949C12.6829 7.32163 12.9069 7.46863 13.09 7.65949C13.2712 7.83887 13.4111 8.05556 13.5 8.29449C13.6068 8.58474 13.6659 8.89036 13.675 9.19949C13.675 9.59449 13.675 9.69949 13.675 10.7295C13.675 11.7595 13.71 11.8645 13.695 12.2595V12.2645ZM12.895 8.54449C12.8355 8.38298 12.7416 8.23631 12.6199 8.1146C12.4982 7.99288 12.3515 7.89902 12.19 7.83949C11.9682 7.76262 11.7347 7.72539 11.5 7.72949C11.11 7.72949 11 7.72949 10 7.72949C9 7.72949 8.89 7.72949 8.5 7.72949C8.26413 7.7318 8.03053 7.77581 7.81 7.85949C7.65096 7.91632 7.50585 8.00635 7.38429 8.12359C7.26274 8.24084 7.16753 8.38261 7.105 8.53949C7.03239 8.76218 6.99691 8.99529 7 9.22949C7 9.61949 7 9.72949 7 10.7295C7 11.7295 7 11.8395 7 12.2295C7.00496 12.4651 7.04888 12.6982 7.13 12.9195C7.18953 13.081 7.28339 13.2277 7.40511 13.3494C7.52682 13.4711 7.67349 13.565 7.835 13.6245C8.04833 13.7029 8.27283 13.7468 8.5 13.7545C8.89 13.7545 9 13.7545 10 13.7545C11 13.7545 11.11 13.7545 11.5 13.7545C11.7359 13.7522 11.9695 13.7082 12.19 13.6245C12.3515 13.565 12.4982 13.4711 12.6199 13.3494C12.7416 13.2277 12.8355 13.081 12.895 12.9195C12.9787 12.699 13.0227 12.4654 13.025 12.2295C13.025 11.8395 13.025 11.7295 13.025 10.7295C13.025 9.72949 13.025 9.61949 13.025 9.22949C13.0251 8.99339 12.9811 8.75935 12.895 8.53949V8.54449ZM10 12.6395C9.74941 12.6395 9.50128 12.5901 9.26983 12.494C9.03838 12.398 8.82815 12.2572 8.65119 12.0798C8.47423 11.9023 8.33401 11.6917 8.23857 11.46C8.14313 11.2283 8.09434 10.9801 8.095 10.7295C8.095 10.3515 8.20715 9.98204 8.41724 9.66784C8.62734 9.35363 8.92594 9.10882 9.27523 8.96441C9.62453 8.81999 10.0088 8.78246 10.3795 8.85657C10.7501 8.93067 11.0904 9.11308 11.3573 9.3807C11.6243 9.64831 11.8058 9.98911 11.8789 10.3599C11.952 10.7308 11.9135 11.115 11.7682 11.4639C11.6228 11.8128 11.3773 12.1108 11.0625 12.32C10.7477 12.5293 10.378 12.6405 10 12.6395ZM12 9.19449C11.8895 9.18279 11.7872 9.1306 11.7128 9.04798C11.6385 8.96535 11.5974 8.85814 11.5974 8.74699C11.5974 8.63585 11.6385 8.52863 11.7128 8.44601C11.7872 8.36338 11.8895 8.31119 12 8.29949C12.1105 8.31119 12.2128 8.36338 12.2872 8.44601C12.3615 8.52863 12.4026 8.63585 12.4026 8.74699C12.4026 8.85814 12.3615 8.96535 12.2872 9.04798C12.2128 9.1306 12.1105 9.18279 12 9.19449Z" fill="white"/>
</svg>
