<svg width="24" height="25" viewBox="0 0 24 25" fill="none" xmlns="http://www.w3.org/2000/svg">
<path d="M11.9999 2.59058C6.41266 2.59058 1.86694 7.13891 1.86694 12.7296C1.86694 18.3204 6.41266 22.8686 11.9999 22.8686C17.5874 22.8686 22.1333 18.3204 22.1333 12.7296C22.1331 7.13891 17.5872 2.59058 11.9999 2.59058ZM11.9999 21.8686C6.96367 21.8686 2.86637 17.7689 2.86637 12.7296C2.86637 7.69041 6.96367 3.59058 11.9999 3.59058C17.0362 3.59058 21.1338 7.69041 21.1338 12.7296C21.1337 17.7689 17.0362 21.8686 11.9999 21.8686Z" fill="white"/>
<path d="M16.5251 9.42621C16.758 9.30588 17.3157 8.94838 17.5785 8.18105C17.5785 8.18105 16.945 8.63938 16.0829 8.69338L16.0672 8.70205C15.8413 8.45468 15.5663 8.25719 15.2597 8.12223C14.9532 7.98726 14.6218 7.91777 14.2869 7.91821C12.953 7.91821 11.8718 9.00021 11.8718 10.3349C11.8718 10.5374 11.897 10.734 11.9441 10.922L11.9324 10.9045C11.9324 10.9045 9.3456 11.0529 6.90683 8.38338C6.90683 8.38338 5.82862 10.2169 7.67473 11.619C7.27046 11.6864 6.55654 11.3224 6.55654 11.3224C6.55654 11.3224 6.59685 13.25 8.51008 13.722C8.20026 13.803 7.62076 13.8297 7.4322 13.749C7.4322 13.749 7.71504 15.2184 9.66891 15.4747C9.17036 15.7579 8.24073 16.6205 6.13861 16.4587C6.13861 16.4587 7.64807 17.6989 10.4506 17.5239C13.2532 17.3489 15.2878 15.461 16.1097 13.4659C16.9316 11.4707 16.7029 10.3347 16.7029 10.3347C16.7029 10.3347 17.3896 9.97405 17.8617 9.11138C17.6436 9.17671 16.8349 9.37438 16.534 9.44755C16.5309 9.44048 16.528 9.43337 16.5251 9.42621Z" fill="white"/>
</svg>
